<svg width="305" height="262" viewBox="0 0 305 262" fill="none" xmlns="http://www.w3.org/2000/svg">
<g filter="url(#filter0_d_607_2271)">
<g clip-path="url(#clip0_607_2271)">
<path d="M9.17676 101.254C26.8406 101.138 73.3334 103.772 112.216 114.581C160.161 127.909 181.189 137.528 237.125 142.512C248.9 143.786 283.177 144.25 283.177 144.25" stroke="url(#paint0_linear_607_2271)"/>
<g filter="url(#filter1_f_607_2271)">
<path d="M9.17676 102.25C77.9268 102.25 108.6 130.734 199.962 132.734C211.526 133.775 257.265 144.88 284.177 145.25" stroke="url(#paint1_linear_607_2271)"/>
</g>
<g filter="url(#filter2_f_607_2271)">
<path d="M9.17676 104.994C33.4105 103.212 71.1923 95.8894 101.748 108.435C143.263 125.482 191.74 151.736 284.177 143.788" stroke="url(#paint2_linear_607_2271)"/>
</g>
<g filter="url(#filter3_f_607_2271)">
<path d="M296.56 166.896C300.98 153.634 298.401 131.44 296.56 122C293.613 138.024 276.759 142.951 268.701 143.412C286.752 144.333 295.332 159.989 296.56 166.896Z" fill="url(#paint3_linear_607_2271)"/>
</g>
<g filter="url(#filter4_f_607_2271)">
<path d="M8.96966 127C4.67905 113.708 5.80336 90.4615 7.59112 81C10.4515 97.0615 29.1786 102.5 37 102.962C19.48 103.885 10.1615 120.077 8.96966 127Z" fill="url(#paint4_linear_607_2271)"/>
</g>
</g>
</g>
<defs>
<filter id="filter0_d_607_2271" x="-1.33301" y="-6" width="307.333" height="274" filterUnits="userSpaceOnUse" color-interpolation-filters="sRGB">
<feFlood flood-opacity="0" result="BackgroundImageFix"/>
<feColorMatrix in="SourceAlpha" type="matrix" values="0 0 0 0 0 0 0 0 0 0 0 0 0 0 0 0 0 0 127 0" result="hardAlpha"/>
<feOffset/>
<feGaussianBlur stdDeviation="3"/>
<feComposite in2="hardAlpha" operator="out"/>
<feColorMatrix type="matrix" values="0 0 0 0 0 0 0 0 0 0 0 0 0 0 0 0 0 0 0.15 0"/>
<feBlend mode="normal" in2="BackgroundImageFix" result="effect1_dropShadow_607_2271"/>
<feBlend mode="normal" in="SourceGraphic" in2="effect1_dropShadow_607_2271" result="shape"/>
</filter>
<filter id="filter1_f_607_2271" x="7.17676" y="99.75" width="279.007" height="48" filterUnits="userSpaceOnUse" color-interpolation-filters="sRGB">
<feFlood flood-opacity="0" result="BackgroundImageFix"/>
<feBlend mode="normal" in="SourceGraphic" in2="BackgroundImageFix" result="shape"/>
<feGaussianBlur stdDeviation="1" result="effect1_foregroundBlur_607_2271"/>
</filter>
<filter id="filter2_f_607_2271" x="8.13965" y="99.75" width="277.08" height="47" filterUnits="userSpaceOnUse" color-interpolation-filters="sRGB">
<feFlood flood-opacity="0" result="BackgroundImageFix"/>
<feBlend mode="normal" in="SourceGraphic" in2="BackgroundImageFix" result="shape"/>
<feGaussianBlur stdDeviation="0.5" result="effect1_foregroundBlur_607_2271"/>
</filter>
<filter id="filter3_f_607_2271" x="265.701" y="119" width="36.2988" height="50.8945" filterUnits="userSpaceOnUse" color-interpolation-filters="sRGB">
<feFlood flood-opacity="0" result="BackgroundImageFix"/>
<feBlend mode="normal" in="SourceGraphic" in2="BackgroundImageFix" result="shape"/>
<feGaussianBlur stdDeviation="1.5" result="effect1_foregroundBlur_607_2271"/>
</filter>
<filter id="filter4_f_607_2271" x="3" y="78" width="37" height="52" filterUnits="userSpaceOnUse" color-interpolation-filters="sRGB">
<feFlood flood-opacity="0" result="BackgroundImageFix"/>
<feBlend mode="normal" in="SourceGraphic" in2="BackgroundImageFix" result="shape"/>
<feGaussianBlur stdDeviation="1.5" result="effect1_foregroundBlur_607_2271"/>
</filter>
<linearGradient id="paint0_linear_607_2271" x1="9.01532" y1="101.234" x2="287.119" y2="137.221" gradientUnits="userSpaceOnUse">
<stop stop-color="#A5B0C0"/>
<stop offset="0.5" stop-color="white"/>
<stop offset="1" stop-color="#A5B0C0"/>
</linearGradient>
<linearGradient id="paint1_linear_607_2271" x1="9.01473" y1="102.234" x2="288.1" y2="138.48" gradientUnits="userSpaceOnUse">
<stop stop-color="#A5B0C0"/>
<stop offset="0.5" stop-color="white"/>
<stop offset="1" stop-color="#A5B0C0"/>
</linearGradient>
<linearGradient id="paint2_linear_607_2271" x1="9.01473" y1="101.234" x2="288.308" y2="136.683" gradientUnits="userSpaceOnUse">
<stop stop-color="#A5B0C0"/>
<stop offset="0.5" stop-color="white"/>
<stop offset="1" stop-color="#A5B0C0"/>
</linearGradient>
<linearGradient id="paint3_linear_607_2271" x1="274.488" y1="144.01" x2="289.666" y2="144.01" gradientUnits="userSpaceOnUse">
<stop stop-color="#A5B0C0"/>
<stop offset="1" stop-color="white"/>
</linearGradient>
<linearGradient id="paint4_linear_607_2271" x1="31.0796" y1="103.551" x2="15.5498" y2="103.551" gradientUnits="userSpaceOnUse">
<stop stop-color="#A5B0C0"/>
<stop offset="1" stop-color="white"/>
</linearGradient>
<clipPath id="clip0_607_2271">
<rect width="295.333" height="262" fill="white" transform="translate(4.66699)"/>
</clipPath>
</defs>
</svg>
