<svg width="305" height="262" viewBox="0 0 305 262" fill="none" xmlns="http://www.w3.org/2000/svg">
<g filter="url(#filter0_d_607_2316)">
<g clip-path="url(#clip0_607_2316)">
<path d="M9.17676 146.641C26.8406 146.757 73.3334 144.123 112.216 133.314C160.161 119.985 181.189 110.366 237.125 105.383C248.9 104.108 283.177 103.645 283.177 103.645" stroke="url(#paint0_linear_607_2316)"/>
<g filter="url(#filter1_f_607_2316)">
<path d="M9.17676 145.645C77.9268 145.645 108.6 117.16 199.962 115.16C211.526 114.12 257.265 103.014 284.177 102.645" stroke="url(#paint1_linear_607_2316)"/>
</g>
<g filter="url(#filter2_f_607_2316)">
<path d="M9.17676 142.901C33.4105 144.683 71.1923 152.005 101.748 139.459C143.263 122.413 191.74 96.1583 284.177 104.107" stroke="url(#paint2_linear_607_2316)"/>
</g>
<g filter="url(#filter3_f_607_2316)">
<path d="M296.56 80.9988C300.98 94.2603 298.401 116.455 296.56 125.895C293.613 109.87 276.759 104.943 268.701 104.483C286.752 103.562 295.332 87.9058 296.56 80.9988Z" fill="url(#paint3_linear_607_2316)"/>
</g>
<g filter="url(#filter4_f_607_2316)">
<path d="M8.96966 120.895C4.67905 134.187 5.80336 157.433 7.59112 166.895C10.4515 150.833 29.1786 145.395 37 144.933C19.48 144.01 10.1615 127.818 8.96966 120.895Z" fill="url(#paint4_linear_607_2316)"/>
</g>
</g>
</g>
<defs>
<filter id="filter0_d_607_2316" x="-1.33301" y="-6" width="307.333" height="274" filterUnits="userSpaceOnUse" color-interpolation-filters="sRGB">
<feFlood flood-opacity="0" result="BackgroundImageFix"/>
<feColorMatrix in="SourceAlpha" type="matrix" values="0 0 0 0 0 0 0 0 0 0 0 0 0 0 0 0 0 0 127 0" result="hardAlpha"/>
<feOffset/>
<feGaussianBlur stdDeviation="3"/>
<feComposite in2="hardAlpha" operator="out"/>
<feColorMatrix type="matrix" values="0 0 0 0 0 0 0 0 0 0 0 0 0 0 0 0 0 0 0.15 0"/>
<feBlend mode="normal" in2="BackgroundImageFix" result="effect1_dropShadow_607_2316"/>
<feBlend mode="normal" in="SourceGraphic" in2="effect1_dropShadow_607_2316" result="shape"/>
</filter>
<filter id="filter1_f_607_2316" x="7.17676" y="100.145" width="279.007" height="48" filterUnits="userSpaceOnUse" color-interpolation-filters="sRGB">
<feFlood flood-opacity="0" result="BackgroundImageFix"/>
<feBlend mode="normal" in="SourceGraphic" in2="BackgroundImageFix" result="shape"/>
<feGaussianBlur stdDeviation="1" result="effect1_foregroundBlur_607_2316"/>
</filter>
<filter id="filter2_f_607_2316" x="8.13965" y="101.145" width="277.08" height="47" filterUnits="userSpaceOnUse" color-interpolation-filters="sRGB">
<feFlood flood-opacity="0" result="BackgroundImageFix"/>
<feBlend mode="normal" in="SourceGraphic" in2="BackgroundImageFix" result="shape"/>
<feGaussianBlur stdDeviation="0.5" result="effect1_foregroundBlur_607_2316"/>
</filter>
<filter id="filter3_f_607_2316" x="265.701" y="78" width="36.2988" height="50.8945" filterUnits="userSpaceOnUse" color-interpolation-filters="sRGB">
<feFlood flood-opacity="0" result="BackgroundImageFix"/>
<feBlend mode="normal" in="SourceGraphic" in2="BackgroundImageFix" result="shape"/>
<feGaussianBlur stdDeviation="1.5" result="effect1_foregroundBlur_607_2316"/>
</filter>
<filter id="filter4_f_607_2316" x="3" y="117.895" width="37" height="52" filterUnits="userSpaceOnUse" color-interpolation-filters="sRGB">
<feFlood flood-opacity="0" result="BackgroundImageFix"/>
<feBlend mode="normal" in="SourceGraphic" in2="BackgroundImageFix" result="shape"/>
<feGaussianBlur stdDeviation="1.5" result="effect1_foregroundBlur_607_2316"/>
</filter>
<linearGradient id="paint0_linear_607_2316" x1="9.01532" y1="146.66" x2="287.119" y2="110.673" gradientUnits="userSpaceOnUse">
<stop stop-color="#A5B0C0"/>
<stop offset="0.5" stop-color="white"/>
<stop offset="1" stop-color="#A5B0C0"/>
</linearGradient>
<linearGradient id="paint1_linear_607_2316" x1="9.01473" y1="145.66" x2="288.1" y2="109.414" gradientUnits="userSpaceOnUse">
<stop stop-color="#A5B0C0"/>
<stop offset="0.5" stop-color="white"/>
<stop offset="1" stop-color="#A5B0C0"/>
</linearGradient>
<linearGradient id="paint2_linear_607_2316" x1="9.01473" y1="146.661" x2="288.308" y2="111.212" gradientUnits="userSpaceOnUse">
<stop stop-color="#A5B0C0"/>
<stop offset="0.5" stop-color="white"/>
<stop offset="1" stop-color="#A5B0C0"/>
</linearGradient>
<linearGradient id="paint3_linear_607_2316" x1="274.488" y1="103.885" x2="289.666" y2="103.885" gradientUnits="userSpaceOnUse">
<stop stop-color="#A5B0C0"/>
<stop offset="1" stop-color="white"/>
</linearGradient>
<linearGradient id="paint4_linear_607_2316" x1="31.0796" y1="144.343" x2="15.5498" y2="144.343" gradientUnits="userSpaceOnUse">
<stop stop-color="#A5B0C0"/>
<stop offset="1" stop-color="white"/>
</linearGradient>
<clipPath id="clip0_607_2316">
<rect width="295.333" height="262" fill="white" transform="translate(4.66699)"/>
</clipPath>
</defs>
</svg>
